<svg width="400" height="300" viewBox="0 0 400 300" fill="none" xmlns="http://www.w3.org/2000/svg">
  <!-- λ°°κ²½ -->
  <rect width="400" height="300" fill="#fff5f5"/>
  
  <!-- λ…ΈνΈλ¶/μ»΄ν“¨ν„° -->
  <rect x="100" y="120" width="200" height="120" fill="#34495e" rx="8"/>
  <rect x="110" y="130" width="180" height="90" fill="#ecf0f1" rx="4"/>
  
  <!-- ν™”λ©΄ λ‚΄μ© -->
  <rect x="120" y="140" width="160" height="8" fill="#3498db" rx="2"/>
  <rect x="120" y="155" width="120" height="6" fill="#95a5a6" rx="1"/>
  <rect x="120" y="170" width="140" height="6" fill="#95a5a6" rx="1"/>
  <rect x="120" y="185" width="100" height="6" fill="#95a5a6" rx="1"/>
  
  <!-- μ±„ν… λ²„λΈ” -->
  <circle cx="250" cy="170" r="15" fill="#2ecc71"/>
  <text x="250" y="175" font-family="Arial, sans-serif" font-size="12" fill="white" text-anchor="middle">π’¬</text>
  
  <!-- ν‚¤λ³΄λ“ -->
  <rect x="120" y="250" width="160" height="30" fill="#bdc3c7" rx="4"/>
  
  <!-- μ „ν™”κΈ° μ•„μ΄μ½ -->
  <circle cx="320" cy="80" r="30" fill="#e74c3c"/>
  <text x="320" y="88" font-family="Arial, sans-serif" font-size="24" fill="white" text-anchor="middle">π“</text>
  
  <!-- μμ•½ μΊλ¦°λ” -->
  <rect x="50" y="50" width="80" height="60" fill="#f39c12" rx="5"/>
  <rect x="60" y="65" width="60" height="8" fill="white" rx="2"/>
  <rect x="60" y="80" width="25" height="6" fill="white" rx="1"/>
  <rect x="95" y="80" width="25" height="6" fill="white" rx="1"/>
  <rect x="60" y="92" width="25" height="6" fill="white" rx="1"/>
  
  <!-- ν…μ¤νΈ -->
  <text x="200" y="290" font-family="Arial, sans-serif" font-size="14" fill="#2c3e50" text-anchor="middle" font-weight="bold">μ¨λΌμΈ μƒλ‹΄ λ° μμ•½</text>
</svg>
